<?xml version="1.0" standalone="no"?><!DOCTYPE svg PUBLIC "-//W3C//DTD SVG 1.1//EN" "http://www.w3.org/Graphics/SVG/1.1/DTD/svg11.dtd"><svg t="1615091973459" class="icon" viewBox="0 0 1443 1024" version="1.1" xmlns="http://www.w3.org/2000/svg" p-id="4562" xmlns:xlink="http://www.w3.org/1999/xlink" width="281.8359375" height="200"><defs><style type="text/css"></style></defs><path d="M115.339121 720.681386H20.12441a20.12441 20.12441 0 0 1 0-40.248821h95.214711a20.12441 20.12441 0 0 1 0 40.248821z" fill="#50FBFF" p-id="4563"></path><path d="M67.688017 768.244993a20.12441 20.12441 0 0 1-20.12441-20.124411v-95.127213a20.12441 20.12441 0 0 1 40.24882 0v95.127213a20.12441 20.12441 0 0 1-20.12441 20.124411z" fill="#50FBFF" p-id="4564"></path><path d="M1316.013945 867.397088m-35.83895 0a35.83895 35.83895 0 1 0 71.6779 0 35.83895 35.83895 0 1 0-71.6779 0Z" fill="#FE7E00" p-id="4565"></path><path d="M1220.974229 1002.685624m-21.314375 0a21.314376 21.314376 0 1 0 42.628751 0 21.314376 21.314376 0 1 0-42.628751 0Z" fill="#FE7E00" p-id="4566"></path><path d="M1365.222503 631.381502m-78.327705 0a78.327705 78.327705 0 1 0 156.65541 0 78.327705 78.327705 0 1 0-156.65541 0Z" fill="#FEDF1D" p-id="4567"></path><path d="M1259.5081 610.049627c0-203.676533-165.107663-368.784196-368.784195-368.784195a368.836694 368.836694 0 0 0-332.332764 208.716385 265.694716 265.694716 0 1 0-36.468932 528.869506h398.988311v-1.329961c189.554447-15.382049 338.59758-173.962403 338.59758-367.471735z" fill="#FC00FC" p-id="4568"></path><path d="M1005.363046 210.93882a396.188393 396.188393 0 0 1 128.446237 292.381434c0 208.401394-160.645294 379.301388-364.829312 395.873402v1.522456H339.140064a286.484107 286.484107 0 0 1-83.035067-12.249641 285.486636 285.486636 0 0 0 208.803883 90.489849H894.748787v-1.434958c204.184018-16.572014 364.759314-187.40201 364.759313-395.873402 0-169.045048-105.48691-313.258323-254.145054-370.70914z" fill="#8304AD" p-id="4569"></path><path d="M394.788434 274.77695a137.388475 137.388475 0 1 1 137.388475-137.388475 137.54597 137.54597 0 0 1-137.388475 137.388475z m0-194.244309a56.873334 56.873334 0 1 0 56.873334 56.873333 56.943332 56.943332 0 0 0-56.873334-56.890833zM894.748787 1019.100144H464.90888c-171.949962 0-315.148267-134.308565-325.98045-305.733543a40.248821 40.248821 0 0 1 37.658897-42.733748c22.591838-0.787477 41.31629 15.487046 42.716248 37.623897 8.154761 129.163716 116.0566 230.345752 245.622804 230.345752h419.287716a39.793834 39.793834 0 0 1 7.297287-1.329961c183.744617-14.909563 327.747898-171.162485 327.747898-355.747078 0-196.851733-160.172807-356.989541-356.989542-356.989541-136.216009 0-262.49231 79.325176-321.798072 202.084079a39.863832 39.863832 0 0 1-41.718778 22.364345c-54.458405-7.279787-113.204183 3.814888-161.327774 32.934035a40.27332 40.27332 0 1 1-41.841274-68.825483 325.857953 325.857953 0 0 1 169.272541-47.248616c5.337344 0 10.709686 0.157495 16.257024 0.472486 77.102741-135.918518 223.660947-222.243489 381.051336-222.243489 241.247932 0 437.487183 196.27425 437.487183 437.487183 0 222.715975-171.074988 411.797936-391.323535 435.019755a38.026386 38.026386 0 0 1-13.579602 2.519927z" fill="#27233A" p-id="4570"></path><path d="M216.503657 590.065213a40.248821 40.248821 0 0 1-34.841479-60.338232 326.802926 326.802926 0 0 1 31.954064-45.918655 40.252321 40.252321 0 0 1 61.878187 51.500991 246.830269 246.830269 0 0 0-24.061795 34.666484 40.248821 40.248821 0 0 1-34.928977 20.089412z" fill="#27233A" p-id="4571"></path></svg>